<?xml version="1.0" standalone="no"?><!DOCTYPE svg PUBLIC "-//W3C//DTD SVG 1.1//EN" "http://www.w3.org/Graphics/SVG/1.1/DTD/svg11.dtd"><svg t="1717739576733" class="icon" viewBox="0 0 1365 1024" version="1.1" xmlns="http://www.w3.org/2000/svg" p-id="30370" xmlns:xlink="http://www.w3.org/1999/xlink" width="341.25" height="256"><path d="M389.12 824.32a259.84 33.28 0 1 0 519.68 0 259.84 33.28 0 1 0-519.68 0Z" fill="#EFF7FF" p-id="30371"></path><path d="M1198.839467 416.813511l-129.191823 60.649245 114.340978-84.807112a640.557511 640.557511 0 0 0-62.429866-81.487644l-560.287289 138.1376 506.097777-191.499378A644.613689 644.613689 0 0 0 993.877333 202.24L140.128711 338.645333C49.4848 451.086222 0.068267 590.751289 0 734.72h1285.12c-0.0512-111.655822-29.815467-221.317689-86.280533-317.906489zM926.72 159.203556a639.061333 639.061333 0 0 0-280.669867-64.483556C448.113778 94.72 271.143822 184.328533 153.6 325.12c201.281422-44.032 551.728356-120.248889 773.12-165.916444z" fill="#EFF7FF" p-id="30372"></path><path d="M970.24 381.44m-15.36 0a15.36 15.36 0 1 0 30.72 0 15.36 15.36 0 1 0-30.72 0Z" fill="#4F91FF" opacity=".4" p-id="30373"></path><path d="M944.64 389.12m-10.24 0a10.24 10.24 0 1 0 20.48 0 10.24 10.24 0 1 0-20.48 0Z" fill="#4F91FF" opacity=".4" p-id="30374"></path><path d="M263.68 419.84m-30.72 0a30.72 30.72 0 1 0 61.44 0 30.72 30.72 0 1 0-61.44 0Z" fill="#4F91FF" opacity=".4" p-id="30375"></path><path d="M206.08 436.48m-21.76 0a21.76 21.76 0 1 0 43.52 0 21.76 21.76 0 1 0-43.52 0Z" fill="#4F91FF" opacity=".4" p-id="30376"></path><path d="M1282.4832 793.6L1203.2 675.84s120.069689 41.915733 106.441956 117.76h-27.158756z" fill="#3F3D56" p-id="30377"></path><path d="M1285.1968 793.6l79.2832-117.76s-120.069689 41.915733-106.441956 117.76h27.158756z" fill="#4F91FF" p-id="30378"></path><path d="M276.48 132.548267c0-6.456889-9.287111-11.696356-20.744533-11.696356-0.227556 0-0.449422 0.005689-0.674134 0.011378C251.605333 110.355911 235.264 102.4 215.631644 102.4c-16.705422 0-31.021511 5.76-37.051733 13.949156a52.952178 52.952178 0 0 0-13.653333-1.735112c-17.567289 0-31.806578 8.029867-31.806578 17.934223 0 8.996978 11.7504 16.443733 27.070578 17.735111C171.323733 152.302933 188.714667 153.6 208.256 153.6c33.180444 0 57.457778-6.277689 58.069333-10.993778 6.078578-2.039467 10.154667-5.779911 10.154667-10.057955zM855.04 260.548267c0-6.456889-9.287111-11.696356-20.744533-11.696356-0.227556 0-0.449422 0.005689-0.674134 0.011378C830.165333 238.355911 813.824 230.4 794.191644 230.4c-16.705422 0-31.021511 5.76-37.051733 13.949156a52.952178 52.952178 0 0 0-13.653333-1.735112c-17.567289 0-31.806578 8.029867-31.806578 17.934223 0 8.996978 11.7504 16.443733 27.070578 17.735111 11.133156 2.019556 28.524089 3.316622 48.065422 3.316622 33.180444 0 57.457778-6.277689 58.069333-10.993778 6.078578-2.039467 10.154667-5.779911 10.154667-10.057955zM1057.28 52.758756c0-11.303822-16.253156-20.465778-36.3008-20.465778-0.398222 0-0.790756 0.008533-1.183289 0.017066C1013.748622 13.923556 985.159111 0 950.798222 0c-29.2352 0-54.291911 10.080711-64.8448 24.411022a92.669156 92.669156 0 0 0-23.893333-3.035022c-30.739911 0-55.660089 14.051556-55.660089 31.382756 0 15.744 20.565333 28.780089 47.374222 31.032888 19.484444 3.535644 49.914311 5.808356 84.115911 5.808356 58.066489 0 100.551111-10.985244 101.617778-19.239822 10.638222-3.569778 17.772089-10.114844 17.772089-17.601422z" fill="#EFF7FF" p-id="30379"></path><path d="M647.68 435.2c113.109333 0 204.8 91.690667 204.8 204.8s-91.690667 204.8-204.8 204.8-204.8-91.690667-204.8-204.8 91.690667-204.8 204.8-204.8z m0 66.56c-76.347733 0-138.24 61.892267-138.24 138.24s61.892267 138.24 138.24 138.24 138.24-61.892267 138.24-138.24-61.892267-138.24-138.24-138.24z" fill="#4485F1" p-id="30380"></path><path d="M677.828267 593.6128C667.949511 576.8448 648.405333 576.062578 648.405333 576.062578s-19.0464-2.446222-31.260444 23.094044c-11.389156 23.805156-27.104711 46.791111-2.531556 52.360534l4.437334-13.878045 2.750577 14.913422c3.498667 0.250311 7.008711 0.312889 10.513067 0.1792 26.313956-0.853333 51.376356 0.250311 50.568533-9.235911C681.813333 630.883556 687.331556 609.749333 677.831111 593.6128zM610.852978 743.304533a36.406044 36.406044 0 0 1-1.3056 5.310578c-0.637156 1.700978-1.627022 3.273956-2.210134 4.994845-1.865956 5.4784 0.719644 11.588267 4.846934 15.815111a27.648 27.648 0 0 0 13.312 7.4752c3.723378 0.887467 7.594667 1.012622 11.434666 1.137777 10.629689 0.341333 21.532444 0.645689 31.601778-2.5856a56.490667 56.490667 0 0 0 9.184711-3.945244c0.924444-0.415289 1.737956-1.024 2.383645-1.772089 0.768-1.035378 0.864711-2.377956 0.859022-3.640889-0.022756-4.260978-0.938667-8.502044-0.719644-12.757333 0.119467-2.358044 0.585956-4.713244 0.3584-7.0656-0.654222-5.469867-4.866844-9.961244-10.532978-11.224178-2.855822-0.580267-5.819733-0.264533-8.7296 0-7.552 0.685511-15.132444 1.006933-22.718578 0.961422-7.751111-0.048356-15.453867-1.166222-23.165156-1.282844-2.281244-0.034133-2.235733 0.631467-2.961066 2.716444a48.648533 48.648533 0 0 0-1.6384 5.8624z" fill="#2F2E41" p-id="30381"></path><path d="M636.538311 633.372444c-0.375467 1.831822-0.782222 3.731911-1.962667 5.239467-1.359644 1.735111-3.575467 2.722133-5.037511 4.380445-2.2016 2.497422-2.3296 6.013156-2.338133 9.244444-0.008533 2.978133 0.056889 6.152533 1.837511 8.624356 1.154844 1.604267 2.915556 2.730667 4.6336 3.811555 6.675911 4.195556 13.892267 8.465067 21.944889 8.604445 3.336533 0.056889 6.912-0.745244 9.107911-3.089067a12.544 12.544 0 0 0 2.204445-3.669333 45.991822 45.991822 0 0 0 3.697777-14.830934c0.184889-2.395022 0.167822-4.864-0.702577-7.122489-0.978489-2.542933-2.958222-4.636444-4.263823-7.048533a14.762667 14.762667 0 0 1-1.621333-9.281422 0.938667 0.938667 0 0 0-0.056889-0.674134 1.089422 1.089422 0 0 0-0.864711-0.327111l-15.963022-1.069511a37.156978 37.156978 0 0 1-4.431645-0.475022c-0.861867-0.162133-3.134578-1.302756-3.953777-0.9984-1.521778 0.560356-1.92 7.159467-2.230045 8.681244z" fill="#FFB8B8" p-id="30382"></path><path d="M636.538311 633.372444c-0.375467 1.831822-0.782222 3.731911-1.962667 5.239467-1.359644 1.735111-3.575467 2.722133-5.037511 4.380445-2.2016 2.497422-2.3296 6.013156-2.338133 9.244444-0.008533 2.978133 0.056889 6.152533 1.837511 8.624356 1.154844 1.604267 2.915556 2.730667 4.6336 3.811555 6.675911 4.195556 13.892267 8.465067 21.944889 8.604445 3.336533 0.056889 6.912-0.745244 9.107911-3.089067a12.544 12.544 0 0 0 2.204445-3.669333 45.991822 45.991822 0 0 0 3.697777-14.830934c0.184889-2.395022 0.167822-4.864-0.702577-7.122489-0.978489-2.542933-2.958222-4.636444-4.263823-7.048533a14.762667 14.762667 0 0 1-1.621333-9.281422 0.938667 0.938667 0 0 0-0.056889-0.674134 1.089422 1.089422 0 0 0-0.864711-0.327111l-15.963022-1.069511a37.156978 37.156978 0 0 1-4.431645-0.475022c-0.861867-0.162133-3.134578-1.302756-3.953777-0.9984-1.521778 0.560356-1.92 7.159467-2.230045 8.681244z" fill="#000000" opacity=".1" p-id="30383"></path><path d="M647.68 611.84m-23.04 0a23.04 23.04 0 1 0 46.08 0 23.04 23.04 0 1 0-46.08 0Z" fill="#FFB8B8" p-id="30384"></path><path d="M638.236444 662.920533c1.223111 1.243022 2.520178 2.474667 4.124445 3.205689 1.629867 0.654222 3.384889 0.978489 5.148444 0.952889 4.229689 0.113778 8.814933-0.637156 11.756089-3.598222 3.794489-3.811556 3.669333-9.964089 6.641778-14.4128 0.238933-0.403911 0.568889-0.750933 0.958578-1.021156 0.497778-0.264533 1.060978-0.389689 1.629866-0.364089 3.754667-0.034133 7.025778 2.335289 9.975467 4.593778 1.322667 1.012622 2.679467 2.059378 3.512889 3.4816 0.583111 1.109333 0.984178 2.298311 1.183289 3.527111 1.464889 6.957511 1.939911 14.071467 2.412089 21.159823 0.258844 3.913956 0.517689 7.8336 0.500622 11.756088-0.065422 12.922311-3.151644 25.628444-6.2208 38.203734-0.398222 1.621333-0.938667 3.433244-2.451911 4.209778a6.180978 6.180978 0 0 1-2.139022 0.506311c-8.795022 1.004089-17.607111 2.011022-26.459023 2.144711a134.4768 134.4768 0 0 1-10.359466-0.244622 5.720178 5.720178 0 0 1-1.743645-0.295823 4.8896 4.8896 0 0 1-1.905777-1.572977c-4.7872-5.870933-5.0688-13.988978-5.037512-21.484089 0.073956-18.323911 0.748089-36.636444 2.019556-54.931911 0.1024-1.507556 0.125156-3.342222-0.992711-4.5312 2.013867 3.137422 4.815644 6.035911 7.4496 8.715377z" fill="#D0CDE1" p-id="30385"></path><path d="M631.071289 636.905244c-0.756622 1.385244-6.337422 4.827022-7.415467 5.973334-6.018844 6.417067-17.004089 6.175289-22.510933 13.047466-1.934222 2.417778-2.944 5.455644-3.683556 8.476445-1.046756 4.272356-1.604267 8.931556 0.147911 12.959289 1.686756 3.874133 5.239467 6.5536 7.651556 10.015289 2.645333 3.803022 3.84 8.419556 4.977778 12.922311 0.8448 3.325156 1.692444 6.7328 1.365333 10.148978-0.372622 3.885511-2.232889 7.443911-3.328 11.184355-1.1008 3.743289-1.288533 8.200533 1.248711 11.141689 1.865956 2.161778 4.790044 3.015111 7.586134 3.498667 3.578311 0.540444 7.190756 0.861867 10.808888 0.950044 3.197156 0.142222 6.718578 0.170667 9.176178-1.900089 1.937067-1.635556 2.781867-4.286578 2.889956-6.838044 0.108089-2.548622-0.415289-5.077333-0.745245-7.606045-0.341333-2.625422-0.472178-5.270756-0.580266-7.913244-0.492089-11.861333-0.557511-23.7312-0.199111-35.606756 0.071111-2.471822 0.162133-4.972089-0.3584-7.387022-0.685511-3.177244-2.383644-6.016-3.800178-8.937244-2.813156-5.794133-4.141511-11.420444-3.709156-17.863111 0.429511-6.354489 3.171556-11.195733 0.477867-6.266312zM663.515022 637.047467c1.214578 1.197511 5.339022 1.592889 6.883556 2.366577 1.453511 0.645689 2.9696 1.152 4.525511 1.507556 5.632 1.564444 10.990933 3.928178 15.8976 7.017244 1.018311 0.574578 1.92 1.322667 2.656711 2.210134 0.864711 1.154844 1.1776 2.596978 1.470578 3.9936 0.756622 3.603911 1.516089 7.247644 1.348266 10.922666-0.182044 3.896889-1.402311 7.671467-2.614044 11.394845l-4.522667 13.915022c-3.3792 10.382222-6.778311 20.872533-7.728355 31.715556a71.793778 71.793778 0 0 0 0.696889 18.013866c0.099556 0.597333 0.182044 1.285689-0.227556 1.743645a1.820444 1.820444 0 0 1-1.109333 0.492089c-2.181689 0.327111-4.295111-0.7424-6.274845-1.692445a71.443911 71.443911 0 0 0-19.157333-6.030222 42.174578 42.174578 0 0 0 5.950578-11.795911c0.762311-2.670933 1.362489-5.378844 1.797689-8.1152l2.104889-11.707733c0.853333-4.280889 1.4592-8.604444 1.806222-12.950756a15.604622 15.604622 0 0 0-0.292978-4.878222 23.179378 23.179378 0 0 0-1.922844-4.397511c-3.470222-6.940444-5.097244-14.859378-3.731912-22.448356 0.597333-3.322311 1.757867-6.647467 1.274312-9.984-0.466489-3.208533 0.017067-5.703111-0.839112-8.880355-3.512889-13.038933-0.275911-4.670578 2.008178-2.412089z" fill="#4485F1" p-id="30386"></path><path d="M602.020978 667.1872c-1.570133 3.157333-4.192711 5.848178-5.085867 9.244444a19.598222 19.598222 0 0 0-0.443733 4.832712c-0.022756 2.446222-0.036978 4.937956 0.739555 7.264711 0.497778 1.499022 1.308444 2.878578 1.891556 4.346311a15.331556 15.331556 0 0 1 1.066667 6.442666c-0.156444 3.043556-1.223111 5.993244-1.308445 9.039645-0.130844 4.7872 2.156089 9.287111 4.383289 13.562311a10.1632 10.1632 0 0 1 6.337422-5.742933 10.567111 10.567111 0 0 1 8.612978 0.995555c0.5888-0.523378 0.654222-1.388089 0.674133-2.161778 0.164978-5.558044 0.324267-11.1104 0.477867-16.668444 0.241778-8.590222 0.469333-17.294222-1.567289-25.656889-0.9216-3.777422-2.352356-7.537778-4.977778-10.467555-1.385244-1.544533-6.078578-5.603556-8.3456-3.876978-1.024 0.776533-0.782222 2.889956-0.944355 3.962311a16.432356 16.432356 0 0 1-1.507556 4.883911z" fill="#4485F1" p-id="30387"></path><path d="M695.580444 658.4832c0.679822 2.286933 0.719644 4.727467 0.733867 7.131022a412.074667 412.074667 0 0 1-0.1792 14.691556c-0.0768 2.505956-0.1792 5.048889-0.881778 7.438222-0.4608 1.575822-1.174756 3.054933-1.649777 4.627911-1.430756 4.707556-0.651378 9.813333-0.529067 14.768356 0.085333 1.604267-0.039822 3.214222-0.372622 4.778666-0.756622 3.072-2.784711 5.5552-4.1984 8.339911-1.345422 2.645333-2.156089 5.603556-3.7632 8.072534-1.604267 2.466133-4.386133 4.420267-7.079823 3.663644-2.042311-0.574578-3.492978-2.531556-4.494222-4.545422a23.9616 23.9616 0 0 1-2.127644-14.466844c1.009778-6.013156 4.266667-11.349333 5.438578-17.328356 1.6128-8.211911-0.836267-16.682667-0.765156-25.076622a13.084444 13.084444 0 0 1 0.4864-3.888356c0.617244-1.917156 1.939911-3.450311 3.163022-4.986311a62.72 62.72 0 0 0 4.2496-6.050133c0.873244-1.416533 2.062222-5.057422 3.612445-5.358934 3.464533-0.676978 7.5008 5.284978 8.359822 8.189156z" fill="#4F91FF" p-id="30388"></path><path d="M582.314667 737.965511a23.671467 23.671467 0 0 0-6.456889-0.671289 16.216178 16.216178 0 0 0-11.764622 5.9904 15.533511 15.533511 0 0 0-3.188623 12.606578c0.526222 2.386489 1.388089 4.690489 2.56 6.843733 1.706667 3.401956 3.7632 6.798222 6.931911 8.977067 1.851733 1.277156 3.999289 2.070756 6.115556 2.852978l16.6912 6.158222c2.454756 0.904533 4.912356 1.811911 7.389867 2.651022a147.228444 147.228444 0 0 0 38.599111 7.515022c4.010667 0.233244 8.078222 0.298667 11.986489-0.594488 0.930133-0.210489 1.92-0.529067 2.454755-1.297067 0.318578-0.543289 0.506311-1.152 0.548978-1.774933l1.026844-7.042845c0.145067-0.989867 0.284444-2.033778-0.085333-2.966755-0.472178-1.183289-1.649778-1.928533-2.776178-2.56-10.971022-6.172444-23.7824-9.577244-33.018311-18.048-2.173156-1.993956-3.9936-5.154133-6.636089-6.510934-2.9952-1.536-6.522311-2.412089-9.619911-3.825778-6.769778-3.094756-13.422933-6.650311-20.758755-8.302933z" fill="#2F2E41" p-id="30389"></path><path d="M599.003022 749.147022c6.035911 1.820444 31.510756 14.444089 35.876978 18.850134-0.585956 0.201956-20.443022-10.518756-21.040356-10.692267-5.415822-1.564444-10.862933-3.143111-16.005688-5.432889-1.035378-0.463644-6.724267-2.631111-6.465423-3.888356 0.290133-1.419378 6.564978 0.841956 7.634489 1.166223z" fill="#000000" opacity=".1" p-id="30390"></path><path d="M672.031289 796.148622a1.393778 1.393778 0 0 0 0.941511-0.275911 1.450667 1.450667 0 0 0 0.295822-1.080889l-0.028444-9.853155c-2.835911-1.351111-6.007467-1.783467-9.122134-2.198756L649.594311 780.8c0.3328 0.045511-2.272711 6.249244-1.871644 7.079822 0.702578 1.4592 6.084267 2.753422 7.600355 3.441778 5.279289 2.397867 10.763378 5.034667 16.708267 4.827022z" fill="#FFB8B8" p-id="30391"></path><path d="M627.928178 785.345422c-2.577067 0.438044-5.4528 0.824889-7.119645 2.966756-2.116267 2.716444-1.214578 6.764089-0.2048 10.126222 0.147911 0.682667 0.449422 1.314133 0.876089 1.846044 0.688356 0.725333 1.743644 0.830578 2.710756 0.896 2.346667 0.159289 4.846933 0.284444 6.900622-0.9472 0.930133-0.654222 1.823289-1.365333 2.679467-2.127644a16.6912 16.6912 0 0 1 4.929422-2.4064 47.075556 47.075556 0 0 1 9.892978-2.178844 14.506667 14.506667 0 0 0 3.896889-0.733867c1.240178-0.497778 2.386489-1.487644 2.744888-2.844445 0.475022-1.800533-0.500622-3.632356-1.439288-5.208177-1.166222-1.962667-2.4064-4.033422-4.150045-5.4784-2.540089-2.107733-3.797333-0.489244-6.357333 0.859022a51.5328 51.5328 0 0 1-15.36 5.230933z" fill="#FFB8B8" p-id="30392"></path><path d="M617.4976 787.180089L601.088 782.051556c-1.9968-0.625778-4.024889-1.251556-6.107022-1.251556-2.079289 0-4.258133 0.722489-5.6064 2.397867-1.274311 1.578667-1.6384 3.7376-1.954134 5.7856l-0.679822 4.380444c-0.344178 2.224356-0.6912 4.494222-0.378311 6.724267 0.310044 2.232889 1.385244 4.460089 3.259733 5.540978 2.269867 1.308444 5.051733 0.671289 7.586134 0.122311 5.12-1.106489 10.325333-1.698133 15.550578-1.763556 1.962667-0.0256 4.024889 0 5.76-0.969955 2.065067-1.157689 3.299556-3.601067 3.510044-6.058667 0.324267-3.743289-0.856178-8.630044-4.5312-9.7792zM678.124089 781.741511c2.264178-0.398222 4.266667-1.683911 6.434133-2.443378 3.054933-1.066667 6.365867-1.066667 9.6-1.055289 1.188978 0.002844 2.454756 0.028444 3.441778 0.688356 1.427911 0.950044 1.792 2.847289 2.033778 4.542578l1.464889 10.225778c0.273067 1.922844 0.546133 3.896889 0.119466 5.791288-0.429511 1.8944-1.723733 3.723378-3.603911 4.209778-2.284089 0.597333-4.522667-0.864711-6.6816-1.820444-5.390222-2.397867-11.656533-1.783467-17.277155-3.575467-1.043911-0.3328-2.161778-0.839111-2.588445-1.848889a4.204089 4.204089 0 0 1-0.199111-1.763555c0.096711-3.288178-0.597333-7.776711 0.392533-10.919823 0.890311-2.824533 4.334933-2.030933 6.863645-2.030933z" fill="#2F2E41" p-id="30393"></path><path d="M713.335467 735.601778a29.659022 29.659022 0 0 1 10.387911-0.708267c2.776178 0.304356 5.637689 1.072356 7.665778 2.983822 2.468978 2.326756 3.259733 5.922133 3.328 9.301334a28.945067 28.945067 0 0 1-6.354489 18.557155 16.896 16.896 0 0 1-3.632356 3.475911 23.972978 23.972978 0 0 1-4.727467 2.264178l-36.687644 14.384356c-9.6512 3.783111-19.339378 7.5776-29.405867 10.072177a2.304 2.304 0 0 1-3.083377-1.109333 75.414756 75.414756 0 0 1-8.041245-14.620444 0.981333 0.981333 0 0 1 0.438045-1.555911l25.949866-14.819556c1.857422-1.060978 3.7376-2.139022 5.282134-3.618133 1.120711-1.080889 2.039467-2.349511 2.710755-3.751823 0.540444-1.115022 0.5888-3.751822 1.274311-4.579555 0.674133-0.804978 2.975289-0.8704 4.039111-1.188978 1.499022-0.455111 2.966756-1.006933 4.394667-1.649778 5.802667-2.582756 10.973867-6.331733 16.5376-9.355377a42.578489 42.578489 0 0 1 9.927111-4.084623z" fill="#2F2E41" p-id="30394"></path><path d="M698.459022 747.633778c-4.337778 3.154489-9.955556 6.052978-14.256355 9.289955-1.467733 1.103644-25.935644 14.409956-26.282667 16.1792 4.010667 0.654222 29.570844-16.642844 33.2288-18.369422 3.655111-1.726578 6.897778-4.161422 10.109156-6.576355 0.8192-0.617244 4.289422-2.466133 1.937066-3.157334-1.322667-0.384-3.757511 2.005333-4.736 2.6368z" fill="#000000" opacity=".1" p-id="30395"></path><path d="M674.895644 593.672533L655.089778 583.68 627.740444 587.767467 622.08 611.84l14.085689-0.520533 3.936711-8.846223v8.698312l6.499556-0.238934 3.771733-14.08 2.360889 14.987378 23.105422-0.455111z" fill="#2F2E41" p-id="30396"></path><path d="M629.76 642.56h43.52v51.2H629.76z" fill="#3F3D56" p-id="30397"></path><path d="M608.110933 730.484622c0.984178 1.427911 2.133333 2.824533 3.714845 3.595378a7.4496 7.4496 0 0 0 6.388622-0.164978 11.093333 11.093333 0 0 0 4.608-4.497066c2.164622-3.717689 2.614044-8.163556 2.343822-12.430223-0.270222-4.260978-1.206044-8.459378-1.621333-12.711822-0.298667-3.091911-0.324267-6.200889-0.347022-9.307022-0.0768-0.654222 0.065422-1.308444 0.398222-1.880178 0.483556-0.637156 1.359644-0.813511 2.136178-1.038222 4.366222-1.260089 7.264711-5.242311 9.344-9.187556 1.388089-2.631111 2.594133-5.509689 2.326755-8.459377-0.267378-2.946844-2.446222-5.916444-5.472711-6.217956-2.494578-0.247467-4.798578 1.294222-6.599111 2.992356a27.255467 27.255467 0 0 0-8.283022 16.105244c-0.392533 2.998044-0.2816 6.075733-1.117867 8.988444-1.792 6.209422-7.387022 10.020978-10.177422 15.610312-3.072 6.158222-1.376711 13.152711 2.358044 18.602666zM687.826489 707.271111a11.593956 11.593956 0 0 1-6.439822 6.314667c-1.780622 0.731022-3.743289 0.853333-5.597867 0.349866a6.254933 6.254933 0 0 1-4.101689-3.743288c-0.284444-0.910222-0.440889-1.860267-0.463644-2.816-0.264533-4.181333-0.162133-8.490667 1.325511-12.398934 0.574578-1.507556 1.348267-2.935467 1.800533-4.485689a22.9376 22.9376 0 0 0 0.679822-5.472711l0.489245-11.414755a7.5776 7.5776 0 0 0-0.164978-2.474667c-0.489244-1.649778-2.002489-2.724978-3.387733-3.709156-3.350756-2.377956-6.661689-5.154133-8.285867-8.974222a6.411378 6.411378 0 0 1-0.571733-3.720533c0.455111-2.264178 2.696533-3.731911 4.912355-4.226845a10.808889 10.808889 0 0 1 8.476445 1.649778 11.2384 11.2384 0 0 1 4.699022 7.389867c0.219022 1.288533 0.216178 2.605511 0.341333 3.905422 0.273067 2.759111 1.132089 5.418667 1.669689 8.135111 1.322667 6.698667 0.637156 13.6192 1.9456 20.315022 1.092267 5.597867 5.213867 9.250133 2.673778 15.374223z" fill="#FFB8B8" p-id="30398"></path><path d="M7.128178 791.04L5.12 791.000178c0.776533-21.998933 3.157333-43.918222 7.128178-65.581511C20.935111 679.037156 35.373511 648.576 55.168 634.88l1.152 1.621333C10.080711 668.487111 7.150933 789.816889 7.128178 791.04zM32.725333 791.04L30.72 791.000178c0.042667-2.221511 1.297067-54.601956 21.888-69.080178l1.152 1.641244C33.9968 737.456356 32.733867 790.505244 32.725333 791.04z" fill="#2F2E41" p-id="30399"></path><path d="M66.56 624.64m-10.24 0a10.24 10.24 0 1 0 20.48 0 10.24 10.24 0 1 0-20.48 0Z" fill="#4F91FF" p-id="30400"></path><path d="M64 714.24m-10.24 0a10.24 10.24 0 1 0 20.48 0 10.24 10.24 0 1 0-20.48 0Z" fill="#4F91FF" p-id="30401"></path><path d="M27.758933 642.833067C29.513956 654.850844 24.940089 665.6 24.940089 665.6s-7.424-8.735289-9.179022-20.753067 2.818844-22.766933 2.818844-22.766933 7.424 8.735289 9.179022 20.753067zM58.396444 673.598578c-11.312356 4.306489-22.556444 1.080889-22.556444 1.080889s7.094044-10.211556 18.403556-14.518045c11.312356-4.306489 22.556444-1.080889 22.556444-1.080889s-7.094044 10.211556-18.403556 14.518045zM59.027911 748.814222a32.719644 32.719644 0 0 1-15.507911 0.6144c6.664533-7.768178 17.692444-11.232711 28.16-8.846222-3.356444 3.712-7.719822 6.550756-12.652089 8.231822z" fill="#2F2E41" p-id="30402"></path><path d="M360.689778 845.937778v-88.001422h51.700622v-49.223112h-51.700622v-235.676444H298.268444l-164.724622 229.3504v55.552h162.247111V845.937778h64.901689z m-64.898845-137.224534H199.813689l95.977244-135.850666v135.850666zM1103.089778 845.937778v-88.001422h51.700622v-49.223112h-51.700622v-235.676444H1040.668444l-164.724622 229.3504v55.552h162.247111V845.937778h64.901689z m-64.898845-137.224534h-95.977244l95.977244-135.850666v135.850666z" fill="#4485F1" p-id="30403"></path></svg>