<?xml version="1.0" standalone="no"?><!DOCTYPE svg PUBLIC "-//W3C//DTD SVG 1.1//EN" "http://www.w3.org/Graphics/SVG/1.1/DTD/svg11.dtd"><svg t="1717376678357" class="icon" viewBox="0 0 1024 1024" version="1.1" xmlns="http://www.w3.org/2000/svg" p-id="2286" width="128" height="128" xmlns:xlink="http://www.w3.org/1999/xlink"><path d="M703.91 221.04v200c0 16.57-13.43 30-30 30s-30-13.43-30-30v-200c0-16.57 13.43-30 30-30 16.56 0 30 13.43 30 30z" fill="#231815" p-id="2287"></path><path d="M695.12 199.83l63.64 63.64c11.72 11.72 11.72 30.71 0 42.43-11.72 11.72-30.71 11.72-42.43 0l-63.64-63.64c-11.72-11.72-11.72-30.71 0-42.43 11.72-11.72 30.71-11.72 42.43 0z" fill="#231815" p-id="2288"></path><path d="M695.12 242.25l-63.64 63.64c-11.72 11.72-30.71 11.72-42.43 0-11.72-11.72-11.72-30.71 0-42.43l63.64-63.64c11.72-11.72 30.71-11.72 42.43 0 11.71 11.72 11.71 30.72 0 42.43z" fill="#231815" p-id="2289"></path><path d="M673.91 859.17c-61.44 0-119.19-23.92-162.63-67.37-43.44-43.44-67.37-101.2-67.37-162.63s23.92-119.19 67.37-162.63c43.44-43.44 101.2-67.37 162.63-67.37s119.19 23.92 162.63 67.37 67.37 101.2 67.37 162.63-23.92 119.19-67.37 162.63-101.2 67.37-162.63 67.37z m0-400c-93.74 0-170 76.26-170 170s76.26 170 170 170 170-76.26 170-170-76.27-170-170-170z" fill="#231815" p-id="2290"></path><path d="M323.56 799.17v-200c0-16.57 13.43-30 30-30s30 13.43 30 30v200c0 16.57-13.43 30-30 30s-30-13.43-30-30z" fill="#231815" p-id="2291"></path><path d="M419.77 750.88H287.34c-16.57 0-30-13.43-30-30s13.43-30 30-30h132.43c16.57 0 30 13.43 30 30s-13.43 30-30 30zM353.56 621.04c-61.44 0-119.19-23.92-162.63-67.37-43.44-43.44-67.37-101.2-67.37-162.63s23.92-119.19 67.37-162.63c43.44-43.44 101.2-67.37 162.63-67.37s119.19 23.92 162.63 67.37c43.44 43.44 67.37 101.2 67.37 162.63s-23.92 119.19-67.37 162.63c-43.44 43.45-101.2 67.37-162.63 67.37z m0-400c-93.74 0-170 76.26-170 170s76.26 170 170 170 170-76.26 170-170-76.26-170-170-170z" fill="#231815" p-id="2292"></path></svg>